<?xml version="1.0" encoding="UTF-8" standalone="no"?>
<svg
   width="67"
   height="80"
   viewBox="0 0 67 80"
   version="1.1"
   id="svg4"
   sodipodi:docname="device_video_intercom_FL.svg"
   inkscape:version="1.1.1 (3bf5ae0d25, 2021-09-20)"
   xmlns:inkscape="http://www.inkscape.org/namespaces/inkscape"
   xmlns:sodipodi="http://sodipodi.sourceforge.net/DTD/sodipodi-0.dtd"
   xmlns="http://www.w3.org/2000/svg"
   xmlns:svg="http://www.w3.org/2000/svg">
  <defs
     id="defs8" />
  <sodipodi:namedview
     id="namedview6"
     pagecolor="#ffffff"
     bordercolor="#666666"
     borderopacity="1.0"
     inkscape:pageshadow="2"
     inkscape:pageopacity="0.0"
     inkscape:pagecheckerboard="0"
     showgrid="false"
     inkscape:zoom="1.4142136"
     inkscape:cx="48.083261"
     inkscape:cy="-2.4748737"
     inkscape:window-width="1920"
     inkscape:window-height="1017"
     inkscape:window-x="3832"
     inkscape:window-y="-8"
     inkscape:window-maximized="1"
     inkscape:current-layer="svg4" />
  <circle
     style="display:inline;fill:#444444;fill-opacity:1;stroke-width:6.33033;stop-color:#000000"
     id="path855"
     cx="33.5"
     cy="40"
     r="34" />
  <path
     id="path2403"
     style="fill:none;stroke:#ffffff;stroke-width:0.749999;stroke-linecap:butt;stroke-linejoin:round;stroke-miterlimit:4;stroke-dasharray:none;stroke-opacity:1"
     d="m 32.553306,45.235816 c 0.612828,0 1.212934,0 1.893385,0 0,0 -0.313957,0.730432 -0.92015,0.73435 -0.614806,0.004 -0.973235,-0.73435 -0.973235,-0.73435 z m -3.557765,-1.121144 v -1.551536 c 0,0 0.28433,-0.435723 0.450446,-0.675669 0.225223,-0.325322 0.739444,-3.654836 1.113602,-4.82978 0.659356,-2.07053 1.851788,-2.819936 2.890362,-2.8278 1.413812,-0.0107 2.415018,1.102874 2.965435,2.852824 0.602648,1.91601 0.963453,4.35431 1.063553,4.554509 0.100098,0.200198 0.52552,1.026015 0.52552,1.026015 v 1.451437 z" />
</svg>
