<?xml version="1.0" encoding="UTF-8" standalone="no"?>
<svg xmlns="http://www.w3.org/2000/svg" width="826" height="826" viewBox="0 0 826 826">
  <circle
     style="display:inline;fill:#444444;fill-opacity:1;stroke-width:76.895;stop-color:#000000"
     id="path855"
     cx="413"
     cy="413"
     r="413" />
  <path
     id="path2403"
     style="display:inline;fill:none;stroke:#ffffff;stroke-width:12.147;stroke-linecap:butt;stroke-linejoin:round;stroke-miterlimit:4;stroke-dasharray:none;stroke-opacity:1"
     d="m 401.50095,476.59983 c 7.4437,0 14.7332,0 22.9993,0 0,0 -3.8142,8.8725 -11.1778,8.9202 -7.468,0.048 -11.8215,-8.9202 -11.8215,-8.9202 z m -43.2168,-13.6187 v -18.8465 c 0,0 3.4546,-5.2929 5.4723,-8.2074 2.7355,-3.9518 8.9815,-44.39559 13.5269,-58.66766 8.0086,-25.15085 22.4939,-34.25398 35.1099,-34.34945 17.1735,-0.12998 29.3351,13.39662 36.0209,34.65337 7.3198,23.27384 11.7024,52.89204 12.9184,55.32394 1.2159,2.4318 6.3845,12.463 6.3845,12.463 v 17.6307 z" />
</svg>
