<?xml version="1.0" encoding="utf-8"?>
<!-- Generator: Adobe Illustrator 26.0.1, SVG Export Plug-In . SVG Version: 6.00 Build 0)  -->
<svg version="1.1" id="Ebene_1" xmlns="http://www.w3.org/2000/svg" xmlns:xlink="http://www.w3.org/1999/xlink" x="0px" y="0px"
	 viewBox="0 0 302 298" style="enable-background:new 0 0 302 298;" xml:space="preserve">
<style type="text/css">
	.st0{fill:#FFFFFF;}
</style>
<g>
	<path class="st0" d="M275.4,70.4c-4.7-6.8-15.9-17.4-39.2-15.8c-1-29.1-22.5-47.4-44.1-52.8c-25.1-6.2-48.9,4-61.8,26.1
		c-8.2-6.2-18.5-9.2-28.8-8.4c-15.1,1.2-28.2,10.2-34.8,23.8C50.3,42,36.2,48.2,27.6,60.5c-8.2,11.7-9.4,27.1-3.1,39.1
		c3.8,7.3,13.5,19.1,36.3,21.4v-7c-14.4-1.6-25-7.7-30.2-17.6c-5.1-9.8-4.1-22.3,2.6-31.9C39.8,55,50.2,50,62.5,50
		c1.9,0,3.9,0.1,5.9,0.4l2.6,0.3l1-2.4c5.1-12.5,16.6-20.8,30-21.9c9.8-0.8,19.7,2.7,27,9.4l3.4,3.2l2.1-4.2
		c13.1-26.4,38.3-30.7,56-26.3c19.9,4.9,39.6,22.2,38.9,49.8l-0.1,4l4-0.5c16.5-2.1,29.5,2.4,36.5,12.5c5.7,8.2,6.5,19.1,1.9,27.8
		c-4.1,7.9-11.8,12.3-21.6,12.3h-8.9v6.9h8.9c12.3,0,22.4-5.8,27.7-16C283.5,94.4,282.5,80.7,275.4,70.4z"/>
	<path class="st0" d="M223.3,75.8H78.7c-5.6,0-10.1,4.6-10.1,10.1v201.9c0,5.6,4.6,10.1,10.1,10.1h144.6c5.6,0,10.1-4.6,10.1-10.1
		V85.9C233.4,80.4,228.8,75.8,223.3,75.8z M77.9,255.1V88.7h145.8v166.5L77.9,255.1L77.9,255.1z M204.3,279.4H190v-9.3h14.3V279.4z
		 M223.8,279.4h-14.3v-9.3h14.3V279.4z"/>
	<path class="st0" d="M176.5,159.3c0,14.1-11.5,25.6-25.6,25.6s-25.6-11.5-25.6-25.6s11.5-25.6,25.6-25.6S176.5,145.1,176.5,159.3z"
		/>
	<path class="st0" d="M203.5,242.7c-0.4-28.7-23.8-51.9-52.7-51.9c-28.8,0-52.3,23.2-52.7,51.9L203.5,242.7L203.5,242.7z"/>
</g>
</svg>
